<svg xmlns="http://www.w3.org/2000/svg" xmlns:xlink="http://www.w3.org/1999/xlink" version="1.1" x="0px" y="0px" viewBox="0 0 100 125" style="enable-background:new 0 0 100 100;" xml:space="preserve"><style type="text/css">
	.st0{fill:#040000;}
</style><g><path class="st0" d="M87.3,56.9L75.8,45.7l-1.2-7l-6.8,4.7H56.1c-8.5,0-16.9,2-24.5,5.9L6.3,62.1C5.5,62.5,5,63.3,5,64.2   c0,1.4,1.3,2.5,2.7,2.3l15.8-2.3L6.8,69C5.7,69.3,5,70.3,5,71.4c0,1.5,1.3,2.7,2.8,2.5L41.6,70l-0.3-3.5c0.1-2.5,1.4-4.8,3.4-6.2   l5.3-3.7l-4.1,4.7c-1.6,1.8-2.3,4.2-2.1,6.5l0.8,9.6c0,0,0.3,4.9,4.6,4.1c3-0.5,3-5.4,3-5.4V65.7l1.8,1.8l11.6-0.2   c-3.4-2.3-1.3-9.3-1.3-9.3l0.7,4.4c0.5,3.3,3.3,5.7,6.6,5.7h10.8c3.1,0,6-1.4,8-3.7L95,59L87.3,56.9z M70.6,51.1l2.3,6.4l-0.8,0.3   l-2.3-6.4L70.6,51.1z M70.8,63.8v-2.5l2.8,2.5H70.8z M83.3,64.2l-6.5-1.9l0.3-0.8l6.5,1.9L83.3,64.2z"/></g><text x="0" y="115" fill="#000000" font-size="5px" font-weight="bold" font-family="'Helvetica Neue', Helvetica, Arial-Unicode, Arial, Sans-serif">Created by parkjisun</text><text x="0" y="120" fill="#000000" font-size="5px" font-weight="bold" font-family="'Helvetica Neue', Helvetica, Arial-Unicode, Arial, Sans-serif">from the Noun Project</text></svg>
